<?xml version="1.0" standalone="no"?>
<!DOCTYPE svg PUBLIC "-//W3C//DTD SVG 1.0//EN" "http://www.w3.org/TR/2001/REC-SVG-20010904/DTD/svg10.dtd">
<svg xmlns="http://www.w3.org/2000/svg" xmlns:xlink="http://www.w3.org/1999/xlink" id="body_1" width="85" height="80">

<defs>
    <clipPath  id="1">

    <path id=""  clip-rule="evenodd" transform="matrix(1 0 0 1 0 0)"  d="M0 60L0 0L0 0L64 0L64 0L64 60L64 60L0 60z" />    </clipPath>
</defs>

<g transform="matrix(1.3333 0 0 1.3333 0 0)">
	<g clip-path="url(#1)" >
    <path id=""  transform="matrix(1 0 0 -1 0 60)"  d="M35.921875 37.125C 36.351562 37.035156 36.539062 36.95703 36.91797 36.710938L36.91797 36.710938L36.91797 36.710938C 37.640625 36.242188 38.453125 35.26953 38.976562 34.25L38.976562 34.25L38.976562 34.25C 39.25 33.71875 39.14453 33.05078 38.73047 32.6875L38.73047 32.6875L38.73047 32.6875C 38.57422 32.55078 38.089844 32.308594 36.804688 31.722656L36.804688 31.722656L36.804688 31.722656C 36.679688 31.667969 36.3125 31.496094 35.996094 31.347656L35.996094 31.347656L35.996094 31.347656C 35.6875 31.195312 35.421875 31.074219 35.414062 31.074219L35.414062 31.074219L35.414062 31.074219C 35.410156 31.074219 35.183594 30.972656 34.91797 30.847656L34.91797 30.847656L34.91797 30.847656C 34.41797 30.613281 34.148438 30.519531 33.964844 30.519531L33.964844 30.519531L33.964844 30.519531C 33.703125 30.519531 33.351562 30.667969 33.121094 30.871094L33.121094 30.871094L33.121094 30.871094C 32.86328 31.109375 32.789062 31.246094 32.691406 31.65625L32.691406 31.65625L32.691406 31.65625C 32.527344 32.33203 32.496094 32.652344 32.496094 33.53125L32.496094 33.53125L32.496094 33.53125C 32.496094 34.492188 32.55078 34.82422 32.804688 35.382812L32.804688 35.382812L32.804688 35.382812C 33.195312 36.23828 34.04297 36.910156 34.996094 37.117188L34.996094 37.117188L34.996094 37.117188C 35.41797 37.20703 35.51172 37.20703 35.921875 37.125zM19.570312 52.10547C 20.433594 51.92578 20.859375 51.789062 21.457031 51.492188L21.457031 51.492188L21.457031 51.492188C 22.074219 51.1875 22.484375 50.890625 23.019531 50.382812L23.019531 50.382812L23.019531 50.382812C 23.558594 49.851562 23.929688 49.371094 24.269531 48.734375L24.269531 48.734375L24.269531 48.734375C 24.492188 48.308594 24.804688 47.5625 24.875 47.277344L24.875 47.277344L24.875 47.277344C 24.894531 47.203125 24.945312 47.01172 24.988281 46.859375L24.988281 46.859375L24.988281 46.859375C 25.378906 45.42578 25.449219 43.195312 25.152344 41.64453L25.152344 41.64453L25.152344 41.64453C 24.722656 39.414062 23.679688 37.78125 22.273438 37.128906L22.273438 37.128906L22.273438 37.128906C 21.5 36.773438 21.082031 36.683594 19.914062 36.652344L19.914062 36.652344L19.914062 36.652344C 18.386719 36.60547 16.664062 36.796875 15.742189 37.10547L15.742189 37.10547L15.742189 37.10547C 15.351562 37.234375 15.222656 37.308594 15.105469 37.453125L15.105469 37.453125L15.007812 37.578125L15.007812 37.578125L15.007812 44.632812L15.007812 44.632812L15.007812 44.632812C 15.007812 51.648438 15.007812 51.6875 15.101562 51.808594L15.101562 51.808594L15.101562 51.808594C 15.160156 51.882812 15.285156 51.953125 15.441406 51.996094L15.441406 51.996094L15.441406 51.996094C 15.667969 52.058594 15.820312 52.08203 16.628906 52.16797L16.628906 52.16797L16.628906 52.16797C 17.175781 52.226562 19.195312 52.179688 19.570312 52.10547zM8.074219 53.445312C 7.921875 53.375 7.925781 53.125 8.078125 53.054688L8.078125 53.054688L8.078125 53.054688C 8.140625 53.027344 8.492189 52.98047 8.851562 52.953125L8.851562 52.953125L8.851562 52.953125C 10.5 52.82422 11.15625 52.42578 11.421875 51.398438L11.421875 51.398438L11.421875 51.398438C 11.59375 50.73828 11.605469 49.996094 11.605469 38.69922L11.605469 38.69922L11.605469 38.69922C 11.605469 30.292969 11.589844 27.464844 11.542969 26.648438L11.542969 26.648438L11.542969 26.648438C 11.394531 24.011719 11.132812 23.074219 10.445312 22.773438L10.445312 22.773438L10.445312 22.773438C 10.261719 22.691406 9.640625 22.578125 9.078125 22.519531L9.078125 22.519531L9.078125 22.519531C 8.621094 22.472656 8.488281 22.292969 8.746094 22.050781L8.746094 22.050781L8.871094 21.929688L8.871094 21.929688L10.46875 21.972656L10.46875 21.972656L10.46875 21.972656C 12.488281 22.019531 14.03125 22.019531 16.628906 21.96875L16.628906 21.96875L16.628906 21.96875C 18.515625 21.933594 18.707031 21.933594 18.839844 22.007812L18.839844 22.007812L18.839844 22.007812C 19.023438 22.101562 19.085938 22.28125 18.972656 22.402344L18.972656 22.402344L18.972656 22.402344C 18.914062 22.46875 18.800781 22.5 18.515625 22.519531L18.515625 22.519531L18.515625 22.519531C 17.21875 22.617188 16.570312 22.707031 16.257812 22.839844L16.257812 22.839844L16.257812 22.839844C 15.851562 23.015625 15.472656 23.519531 15.335939 24.085938L15.335939 24.085938L15.335939 24.085938C 15.097656 25.089844 15.046875 26.179688 15.023439 30.933594L15.023439 30.933594L15.023439 30.933594C 15 35.046875 15.003906 35.26953 15.082031 35.32422L15.082031 35.32422L15.082031 35.32422C 15.179689 35.398438 16.324219 35.40625 18.925781 35.34375L18.925781 35.34375L18.925781 35.34375C 20.457031 35.308594 20.664062 35.29297 20.777344 35.21875L20.777344 35.21875L20.777344 35.21875C 20.914062 35.132812 21.257812 34.683594 22.1875 33.39453L22.1875 33.39453L22.1875 33.39453C 24.53125 30.144531 26.925781 26.96875 28.117188 25.546875L28.117188 25.546875L28.117188 25.546875C 28.808594 24.714844 29.6875 23.8125 30.203125 23.394531L30.203125 23.394531L30.203125 23.394531C 31.359375 22.464844 32.67578 21.90625 34.30078 21.664062L34.30078 21.664062L34.30078 21.664062C 35.59375 21.472656 38.265625 21.585938 39.375 21.882812L39.375 21.882812L39.375 21.882812C 40.48047 22.179688 41.69922 22.769531 42.51953 23.398438L42.51953 23.398438L42.51953 23.398438C 42.871094 23.671875 43.38672 24.183594 43.703125 24.578125L43.703125 24.578125L43.703125 24.578125C 44.585938 25.6875 45.16797 27.152344 45.285156 28.5625L45.285156 28.5625L45.285156 28.5625C 45.32422 28.988281 45.253906 29.175781 45.01953 29.269531L45.01953 29.269531L45.01953 29.269531C 44.890625 29.324219 44.85547 29.320312 44.70703 29.238281L44.70703 29.238281L44.70703 29.238281C 44.507812 29.132812 44.445312 29.015625 44.171875 28.191406L44.171875 28.191406L44.171875 28.191406C 43.820312 27.128906 43.621094 26.699219 43.16797 26.019531L43.16797 26.019531L43.16797 26.019531C 42.226562 24.609375 40.695312 23.667969 39.203125 23.578125L39.203125 23.578125L39.203125 23.578125C 37.648438 23.488281 36.234375 24.445312 34.847656 26.53125L34.847656 26.53125L34.847656 26.53125C 34.66797 26.800781 34.433594 27.1875 34.320312 27.390625L34.320312 27.390625L34.320312 27.390625C 34.125 27.746094 34.117188 27.773438 34.117188 28.15625L34.117188 28.15625L34.117188 28.15625C 34.121094 28.515625 34.132812 28.566406 34.273438 28.792969L34.273438 28.792969L34.273438 28.792969C 34.398438 28.988281 34.757812 29.3125 34.847656 29.3125L34.847656 29.3125L34.847656 29.3125C 34.86328 29.3125 35.132812 29.433594 35.441406 29.585938L35.441406 29.585938L35.441406 29.585938C 35.757812 29.734375 36.121094 29.902344 36.246094 29.964844L36.246094 29.964844L36.246094 29.964844C 36.378906 30.019531 36.628906 30.132812 36.804688 30.21875L36.804688 30.21875L36.804688 30.21875C 37.523438 30.5625 38.132812 30.84375 38.148438 30.84375L38.148438 30.84375L38.148438 30.84375C 38.15625 30.84375 38.4375 30.972656 38.78125 31.136719L38.78125 31.136719L38.78125 31.136719C 39.121094 31.296875 39.472656 31.464844 39.558594 31.5L39.558594 31.5L39.558594 31.5C 39.89453 31.65625 40.339844 31.859375 40.8125 32.08203L40.8125 32.08203L40.8125 32.08203C 41.078125 32.20703 41.453125 32.382812 41.64453 32.464844L41.64453 32.464844L41.64453 32.464844C 42.121094 32.683594 42.445312 32.890625 42.58203 33.078125L42.58203 33.078125L42.58203 33.078125C 42.84375 33.433594 42.91797 33.90625 42.76953 34.28125L42.76953 34.28125L42.76953 34.28125C 42.726562 34.39453 42.58203 34.640625 42.441406 34.828125L42.441406 34.828125L42.441406 34.828125C 41.128906 36.625 39.554688 37.80078 37.890625 38.23047L37.890625 38.23047L37.890625 38.23047C 36.507812 38.589844 35.1875 38.44922 33.839844 37.796875L33.839844 37.796875L33.839844 37.796875C 32.441406 37.121094 31.378906 36.066406 30.6875 34.66797L30.6875 34.66797L30.6875 34.66797C 30.527344 34.339844 30.339844 33.90625 30.277344 33.71875L30.277344 33.71875L30.277344 33.71875C 30.136719 33.28125 29.925781 32.41797 29.925781 32.26953L29.925781 32.26953L29.925781 32.26953C 29.925781 31.902344 29.636719 31.382812 29.332031 31.199219L29.332031 31.199219L29.332031 31.199219C 28.929688 30.960938 28.601562 30.925781 28.195312 31.074219L28.195312 31.074219L28.195312 31.074219C 27.832031 31.214844 27.835938 31.207031 26.472656 32.953125L26.472656 32.953125L26.472656 32.953125C 26.269531 33.21875 25.738281 33.898438 25.292969 34.46875L25.292969 34.46875L25.292969 34.46875C 24.847656 35.035156 24.433594 35.59375 24.378906 35.70703L24.378906 35.70703L24.378906 35.70703C 24.242188 35.976562 24.234375 36.476562 24.359375 36.76172L24.359375 36.76172L24.359375 36.76172C 24.414062 36.86328 24.664062 37.179688 24.921875 37.45703L24.921875 37.45703L24.921875 37.45703C 26.894531 39.558594 28.089844 41.5625 28.5625 43.54297L28.5625 43.54297L28.5625 43.54297C 28.710938 44.171875 28.726562 44.26172 28.789062 44.785156L28.789062 44.785156L28.789062 44.785156C 29.09375 47.242188 28.417969 49.30078 26.726562 51.066406L26.726562 51.066406L26.726562 51.066406C 26.4375 51.378906 25.796875 51.878906 25.445312 52.078125L25.445312 52.078125L25.445312 52.078125C 24.804688 52.441406 23.980469 52.816406 23.601562 52.914062L23.601562 52.914062L23.601562 52.914062C 23.527344 52.929688 23.347656 52.98047 23.207031 53.023438L23.207031 53.023438L23.207031 53.023438C 22.753906 53.160156 22.128906 53.289062 21.378906 53.402344L21.378906 53.402344L21.378906 53.402344C 20.925781 53.472656 20.195312 53.484375 14.523439 53.48828L14.523439 53.48828L14.523439 53.48828C 10.1875 53.492188 8.144531 53.476562 8.074219 53.445312z" stroke="none" fill="#000000" fill-rule="nonzero" />
    <path id=""  transform="matrix(1 0 0 -1 0 60)"  d="M48.48047 53.140625C 48.222656 53.11328 48.066406 52.95703 48.109375 52.78125L48.109375 52.78125L48.109375 52.78125C 48.148438 52.648438 48.308594 52.597656 48.777344 52.558594L48.777344 52.558594L48.777344 52.558594C 49.6875 52.496094 50.203125 52.316406 50.54297 51.94922L50.54297 51.94922L50.54297 51.94922C 50.82422 51.648438 50.96875 51.328125 51.070312 50.78125L51.070312 50.78125L51.070312 50.78125C 51.20703 50.05078 51.234375 48.070312 51.234375 38.44922L51.234375 38.44922L51.234375 38.44922C 51.234375 26.488281 51.195312 25.082031 50.859375 23.660156L50.859375 23.660156L50.859375 23.660156C 50.69922 23.011719 50.421875 22.542969 50.097656 22.375L50.097656 22.375L50.097656 22.375C 49.890625 22.261719 49.496094 22.183594 48.98828 22.152344L48.98828 22.152344L48.98828 22.152344C 48.433594 22.117188 48.277344 22.0625 48.242188 21.910156L48.242188 21.910156L48.242188 21.910156C 48.21875 21.824219 48.242188 21.761719 48.33203 21.675781L48.33203 21.675781L48.453125 21.550781L48.453125 21.550781L49.765625 21.5625L49.765625 21.5625L49.765625 21.5625C 50.484375 21.566406 51.503906 21.597656 52.035156 21.625L52.035156 21.625L52.035156 21.625C 52.683594 21.652344 53.335938 21.65625 54.05078 21.625L54.05078 21.625L54.05078 21.625C 54.628906 21.597656 55.882812 21.566406 56.84375 21.5625L56.84375 21.5625L56.84375 21.5625C 58.507812 21.550781 58.59375 21.554688 58.6875 21.636719L58.6875 21.636719L58.6875 21.636719C 58.742188 21.6875 58.785156 21.78125 58.785156 21.855469L58.785156 21.855469L58.785156 21.855469C 58.785156 22.050781 58.617188 22.109375 58.01953 22.148438L58.01953 22.148438L58.01953 22.148438C 57.054688 22.203125 56.234375 22.332031 55.98047 22.472656L55.98047 22.472656L55.98047 22.472656C 55.226562 22.882812 55.027344 23.488281 54.859375 25.929688L54.859375 25.929688L54.859375 25.929688C 54.785156 26.949219 54.78125 28.191406 54.777344 38.304688L54.777344 38.304688L54.777344 38.304688C 54.777344 48.570312 54.785156 49.609375 54.85547 50.265625L54.85547 50.265625L54.85547 50.265625C 54.996094 51.507812 55.21875 51.960938 55.851562 52.28125L55.851562 52.28125L55.851562 52.28125C 56.121094 52.41797 56.371094 52.46875 57.13672 52.554688L57.13672 52.554688L57.13672 52.554688C 57.527344 52.601562 57.652344 52.632812 57.69922 52.69922L57.69922 52.69922L57.69922 52.69922C 57.851562 52.90625 57.6875 53.13672 57.375 53.14453L57.375 53.14453L57.375 53.14453C 56.851562 53.16797 54.808594 53.128906 54.01172 53.089844L54.01172 53.089844L54.01172 53.089844C 53.378906 53.05078 52.734375 53.05078 51.859375 53.089844L51.859375 53.089844L51.859375 53.089844C 50.339844 53.148438 48.789062 53.171875 48.48047 53.140625z" stroke="none" fill="#000000" fill-rule="nonzero" />
    <path id=""  transform="matrix(1 0 0 -1 0 60)"  d="M16.164062 12.550781C 16.359375 12.511719 16.722656 12.175781 16.851562 11.917969L16.851562 11.917969L16.851562 11.917969C 17.066406 11.4921875 17.140625 11.1015625 17.140625 10.4140625L17.140625 10.4140625L17.140625 10.4140625C 17.140625 9.5078125 16.976562 8.941406 16.617188 8.550781L16.617188 8.550781L16.617188 8.550781C 16.449219 8.378906 16.128906 8.222656 15.941406 8.222656L15.941406 8.222656L15.941406 8.222656C 15.71875 8.222656 15.359375 8.3515625 15.183594 8.5L15.183594 8.5L15.007812 8.644531L15.007812 8.644531L15.007812 10.3984375L15.007812 10.3984375L15.007812 10.3984375C 15.007812 11.7265625 15.023439 12.1640625 15.070312 12.21875L15.070312 12.21875L15.070312 12.21875C 15.136719 12.308594 15.46875 12.515625 15.59375 12.546875L15.59375 12.546875L15.59375 12.546875C 15.726562 12.582031 16 12.5859375 16.164062 12.550781zM14.863281 15.800781C 14.851562 15.7890625 14.734375 15.761719 14.609375 15.730469L14.609375 15.730469L14.609375 15.730469C 13.691406 15.550781 13.277344 15.453125 13.238281 15.417969L13.238281 15.417969L13.238281 15.417969C 13.210939 15.390625 13.207031 15.328125 13.226562 15.2734375L13.226562 15.2734375L13.226562 15.2734375C 13.25 15.1953125 13.285156 15.1796875 13.488281 15.191406L13.488281 15.191406L13.488281 15.191406C 13.699219 15.199219 13.734375 15.183594 13.824219 15.0703125L13.824219 15.0703125L13.824219 15.0703125C 13.921875 14.941406 13.921875 14.925781 13.941406 11.339844L13.941406 11.339844L13.941406 11.339844C 13.960939 8.1875 13.976562 7.7382812 14.035156 7.7226562L14.035156 7.7226562L14.035156 7.7226562C 14.074219 7.71875 14.261719 7.8242188 14.460939 7.96875L14.460939 7.96875L14.460939 7.96875C 14.65625 8.105469 14.832031 8.222656 14.851562 8.222656L14.851562 8.222656L14.851562 8.222656C 14.871094 8.222656 14.953125 8.167969 15.042969 8.1015625L15.042969 8.1015625L15.042969 8.1015625C 15.472656 7.7734375 16.070312 7.6484375 16.582031 7.7773438L16.582031 7.7773438L16.582031 7.7773438C 18.246094 8.203125 18.957031 10.6953125 17.851562 12.238281L17.851562 12.238281L17.851562 12.238281C 17.628906 12.550781 17.226562 12.863281 16.871094 13.003906L16.871094 13.003906L16.871094 13.003906C 16.367188 13.191406 15.667969 13.109375 15.226562 12.796875L15.226562 12.796875L15.226562 12.796875C 15.148439 12.7421875 15.078125 12.722656 15.050781 12.75L15.050781 12.75L15.050781 12.75C 15.027344 12.7734375 15.003906 13.464844 15 14.296875L15 14.296875L15 14.296875C 14.984375 15.6953125 14.96875 15.910156 14.863281 15.800781z" stroke="none" fill="#000000" fill-rule="nonzero" />
    <path id=""  transform="matrix(1 0 0 -1 0 60)"  d="M45.16797 14.6015625C 45.140625 14.5703125 45.128906 14.503906 45.148438 14.4609375L45.148438 14.4609375L45.148438 14.4609375C 45.183594 14.371094 45.085938 13.953125 44.976562 13.738281L44.976562 13.738281L44.976562 13.738281C 44.867188 13.519531 44.51172 13.1953125 44.26953 13.089844L44.26953 13.089844L44.26953 13.089844C 44.164062 13.042969 43.95703 12.980469 43.8125 12.9453125L43.8125 12.9453125L43.8125 12.9453125C 43.554688 12.890625 43.54297 12.886719 43.54297 12.738281L43.54297 12.738281L43.54297 12.738281C 43.54297 12.558594 43.58203 12.542969 44.054688 12.5234375L44.054688 12.5234375L44.35547 12.511719L44.35547 12.511719L44.382812 10.5625L44.382812 10.5625L44.382812 10.5625C 44.39453 9.4921875 44.42578 8.566406 44.445312 8.5L44.445312 8.5L44.445312 8.5C 44.601562 8.046875 44.941406 7.78125 45.433594 7.7304688L45.433594 7.7304688L45.433594 7.7304688C 45.902344 7.6796875 46.32422 7.8476562 46.80078 8.269531L46.80078 8.269531L46.80078 8.269531C 47.04297 8.484375 47.058594 8.542969 46.92578 8.6640625L46.92578 8.6640625L46.92578 8.6640625C 46.84375 8.7421875 46.828125 8.7421875 46.73047 8.667969L46.73047 8.667969L46.73047 8.667969C 46.375 8.410156 46.26172 8.3515625 46.10547 8.3359375L46.10547 8.3359375L46.10547 8.3359375C 45.878906 8.3046875 45.652344 8.441406 45.54297 8.675781L45.54297 8.675781L45.54297 8.675781C 45.476562 8.832031 45.464844 9.0625 45.464844 10.6796875L45.464844 10.6796875L45.464844 12.511719L45.464844 12.511719L46.089844 12.519531L46.089844 12.519531L46.089844 12.519531C 46.90625 12.5390625 46.92578 12.542969 46.92578 12.7421875L46.92578 12.7421875L46.92578 12.90625L46.92578 12.90625L46.23047 12.90625L46.23047 12.90625L46.23047 12.90625C 45.58203 12.90625 45.535156 12.910156 45.48828 12.996094L45.48828 12.996094L45.48828 12.996094C 45.45703 13.058594 45.441406 13.3671875 45.44922 13.828125L45.44922 13.828125L45.44922 13.828125C 45.453125 14.230469 45.441406 14.5859375 45.42578 14.6171875L45.42578 14.6171875L45.42578 14.6171875C 45.378906 14.683594 45.234375 14.6796875 45.16797 14.6015625z" stroke="none" fill="#000000" fill-rule="nonzero" />
    <path id=""  transform="matrix(1 0 0 -1 0 60)"  d="M23.945312 12.699219C 24.121094 12.609375 24.355469 12.328125 24.394531 12.171875L24.394531 12.171875L24.394531 12.171875C 24.40625 12.1015625 24.441406 11.988281 24.457031 11.910156L24.457031 11.910156L24.457031 11.910156C 24.527344 11.65625 24.558594 11.105469 24.503906 11.074219L24.503906 11.074219L24.503906 11.074219C 24.441406 11.035156 22.621094 11.035156 22.554688 11.074219L22.554688 11.074219L22.554688 11.074219C 22.410156 11.167969 22.761719 12.2734375 23.007812 12.5L23.007812 12.5L23.007812 12.5C 23.277344 12.7421875 23.695312 12.832031 23.945312 12.699219zM23.203125 13.0546875C 22.621094 12.8984375 22.105469 12.488281 21.757812 11.894531L21.757812 11.894531L21.757812 11.894531C 21.664062 11.730469 21.585938 11.574219 21.585938 11.542969L21.585938 11.542969L21.585938 11.542969C 21.585938 11.515625 21.566406 11.46875 21.550781 11.4453125L21.550781 11.4453125L21.550781 11.4453125C 21.527344 11.417969 21.472656 11.2578125 21.429688 11.0859375L21.429688 11.0859375L21.429688 11.0859375C 21.3125 10.644531 21.339844 9.7578125 21.488281 9.339844L21.488281 9.339844L21.488281 9.339844C 21.75 8.597656 22.308594 8.046875 23.03125 7.8203125L23.03125 7.8203125L23.03125 7.8203125C 23.394531 7.703125 24.125 7.71875 24.449219 7.84375L24.449219 7.84375L24.449219 7.84375C 24.824219 7.9921875 25.128906 8.203125 25.425781 8.535156L25.425781 8.535156L25.425781 8.535156C 25.765625 8.9140625 25.839844 9.035156 25.769531 9.140625L25.769531 9.140625L25.769531 9.140625C 25.675781 9.292969 25.574219 9.253906 25.238281 8.910156L25.238281 8.910156L25.238281 8.910156C 25.050781 8.722656 24.78125 8.511719 24.644531 8.433594L24.644531 8.433594L24.644531 8.433594C 24.421875 8.3125 24.34375 8.292969 24.019531 8.296875L24.019531 8.296875L24.019531 8.296875C 23.597656 8.296875 23.453125 8.3515625 23.128906 8.652344L23.128906 8.652344L23.128906 8.652344C 22.753906 9 22.511719 9.652344 22.511719 10.324219L22.511719 10.324219L22.511719 10.6796875L22.511719 10.6796875L25.664062 10.6796875L25.664062 10.6796875L25.664062 10.855469L25.664062 10.855469L25.664062 10.855469C 25.660156 11.324219 25.355469 12.066406 25.003906 12.464844L25.003906 12.464844L25.003906 12.464844C 24.742188 12.761719 24.390625 12.984375 24.03125 13.066406L24.03125 13.066406L24.03125 13.066406C 23.667969 13.152344 23.582031 13.152344 23.203125 13.0546875z" stroke="none" fill="#000000" fill-rule="nonzero" />
    <path id=""  transform="matrix(1 0 0 -1 0 60)"  d="M31.453125 9.496094L31.453125 9.496094L31.453125 9.496094L31.453125 8.5L31.453125 8.5L31.269531 8.410156L31.269531 8.410156L31.269531 8.410156C 31.132812 8.339844 30.996094 8.316406 30.746094 8.316406L30.746094 8.316406L30.746094 8.316406C 30.335938 8.316406 30.136719 8.417969 30 8.707031L30 8.707031L30 8.707031C 29.921875 8.8671875 29.914062 8.917969 29.960938 9.140625L29.960938 9.140625L29.960938 9.140625C 30.027344 9.453125 30.234375 9.785156 30.5 10.003906L30.5 10.003906L30.5 10.003906C 30.738281 10.199219 31.359375 10.546875 31.417969 10.511719L31.417969 10.511719L31.417969 10.511719C 31.433594 10.5 31.453125 10.0390625 31.453125 9.496094zM30.226562 13.0625C 29.53125 12.9375 29.167969 12.722656 28.96875 12.324219L28.96875 12.324219L28.96875 12.324219C 28.859375 12.09375 28.851562 12.046875 28.894531 11.894531L28.894531 11.894531L28.894531 11.894531C 29.003906 11.5390625 29.390625 11.324219 29.738281 11.425781L29.738281 11.425781L29.738281 11.425781C 30.023438 11.5078125 30.136719 11.6796875 30.207031 12.097656L30.207031 12.097656L30.207031 12.097656C 30.308594 12.6875 30.464844 12.839844 30.9375 12.796875L30.9375 12.796875L30.9375 12.796875C 31.152344 12.785156 31.210938 12.7578125 31.324219 12.6328125L31.324219 12.6328125L31.453125 12.484375L31.453125 12.484375L31.445312 11.6640625L31.445312 11.6640625L31.429688 10.847656L31.429688 10.847656L31.03125 10.738281L31.03125 10.738281L31.03125 10.738281C 30.195312 10.5234375 29.554688 10.1796875 29.140625 9.7265625L29.140625 9.7265625L29.140625 9.7265625C 28.859375 9.4140625 28.765625 9.238281 28.734375 8.941406L28.734375 8.941406L28.734375 8.941406C 28.683594 8.46875 28.914062 8.066406 29.359375 7.8476562L29.359375 7.8476562L29.359375 7.8476562C 29.535156 7.7578125 29.65625 7.7421875 29.996094 7.7421875L29.996094 7.7421875L29.996094 7.7421875C 30.476562 7.7382812 30.800781 7.8242188 31.199219 8.066406L31.199219 8.066406L31.199219 8.066406C 31.347656 8.152344 31.480469 8.222656 31.503906 8.222656L31.503906 8.222656L31.503906 8.222656C 31.527344 8.222656 31.585938 8.1640625 31.644531 8.089844L31.644531 8.089844L31.644531 8.089844C 31.96875 7.6484375 32.742188 7.6171875 33.191406 8.027344L33.191406 8.027344L33.191406 8.027344C 33.445312 8.261719 33.503906 8.359375 33.445312 8.433594L33.445312 8.433594L33.445312 8.433594C 33.39453 8.4921875 33.371094 8.4921875 33.23828 8.410156L33.23828 8.410156L33.23828 8.410156C 33.03125 8.285156 32.91797 8.292969 32.742188 8.449219L32.742188 8.449219L32.589844 8.5859375L32.589844 8.5859375L32.566406 10.503906L32.566406 10.503906L32.566406 10.503906C 32.54297 12.1953125 32.53125 12.4375 32.45703 12.566406L32.45703 12.566406L32.45703 12.566406C 32.316406 12.8359375 32.066406 12.9609375 31.433594 13.066406L31.433594 13.066406L31.433594 13.066406C 30.945312 13.152344 30.71875 13.152344 30.226562 13.0625z" stroke="none" fill="#000000" fill-rule="nonzero" />
    <path id=""  transform="matrix(1 0 0 -1 0 60)"  d="M37.17578 13.046875C 37.027344 13.0078125 36.816406 12.964844 36.16797 12.832031L36.16797 12.832031L36.16797 12.832031C 35.796875 12.75 35.76172 12.734375 35.76172 12.640625L35.76172 12.640625L35.76172 12.640625C 35.76172 12.53125 35.785156 12.519531 36.027344 12.535156L36.027344 12.535156L36.027344 12.535156C 36.21875 12.542969 36.339844 12.472656 36.402344 12.316406L36.402344 12.316406L36.402344 12.316406C 36.433594 12.234375 36.45703 11.59375 36.464844 10.519531L36.464844 10.519531L36.48047 8.847656L36.48047 8.847656L36.60547 8.5859375L36.60547 8.5859375L36.60547 8.5859375C 36.753906 8.265625 37.01172 8 37.3125 7.8515625L37.3125 7.8515625L37.3125 7.8515625C 37.664062 7.6835938 38.195312 7.6914062 38.558594 7.8710938L38.558594 7.8710938L38.558594 7.8710938C 38.710938 7.9453125 38.92578 8.097656 39.035156 8.2109375L39.035156 8.2109375L39.035156 8.2109375C 39.148438 8.3203125 39.257812 8.3984375 39.285156 8.386719L39.285156 8.386719L39.285156 8.386719C 39.308594 8.3671875 39.328125 8.265625 39.328125 8.1484375L39.328125 8.1484375L39.328125 8.1484375C 39.328125 8.0390625 39.34375 7.9453125 39.367188 7.9453125L39.367188 7.9453125L39.367188 7.9453125C 39.44922 7.9414062 41.070312 7.9414062 41.117188 7.9453125L41.117188 7.9453125L41.117188 7.9453125C 41.195312 7.9453125 41.226562 8.1171875 41.164062 8.191406L41.164062 8.191406L41.164062 8.191406C 41.13672 8.2265625 41.01172 8.269531 40.88672 8.285156L40.88672 8.285156L40.88672 8.285156C 40.742188 8.296875 40.625 8.339844 40.558594 8.402344L40.558594 8.402344L40.558594 8.402344C 40.464844 8.5 40.464844 8.5234375 40.44922 10.761719L40.44922 10.761719L40.44922 10.761719C 40.445312 12.003906 40.41797 13.0390625 40.398438 13.058594L40.398438 13.058594L40.398438 13.058594C 40.351562 13.105469 38.597656 12.78125 38.51953 12.7109375L38.51953 12.7109375L38.51953 12.7109375C 38.48828 12.683594 38.48828 12.640625 38.523438 12.589844L38.523438 12.589844L38.523438 12.589844C 38.5625 12.5234375 38.628906 12.515625 38.878906 12.5234375L38.878906 12.5234375L38.878906 12.5234375C 39.34375 12.550781 39.328125 12.609375 39.328125 10.6484375L39.328125 10.6484375L39.328125 9.035156L39.328125 9.035156L39.1875 8.863281L39.1875 8.863281L39.1875 8.863281C 39.023438 8.6640625 38.61328 8.453125 38.38672 8.453125L38.38672 8.453125L38.38672 8.453125C 38.085938 8.453125 37.753906 8.667969 37.632812 8.941406L37.632812 8.941406L37.632812 8.941406C 37.609375 8.9921875 37.58203 9.941406 37.566406 11.050781L37.566406 11.050781L37.54297 13.066406L37.54297 13.066406L37.429688 13.078125L37.429688 13.078125L37.429688 13.078125C 37.36328 13.082031 37.253906 13.066406 37.17578 13.046875z" stroke="none" fill="#000000" fill-rule="nonzero" />
    <path id=""  transform="matrix(1 0 0 -1 0 60)"  d="M49.273438 12.871094C 49.253906 12.859375 49.242188 12.785156 49.242188 12.714844L49.242188 12.714844L49.242188 12.714844C 49.242188 12.582031 49.3125 12.535156 49.51953 12.535156L49.51953 12.535156L49.51953 12.535156C 49.726562 12.535156 49.933594 12.3203125 50.125 11.910156L50.125 11.910156L50.125 11.910156C 50.4375 11.234375 50.585938 10.90625 50.585938 10.886719L50.585938 10.886719L50.585938 10.886719C 50.585938 10.875 50.76172 10.472656 50.98047 9.984375L50.98047 9.984375L50.98047 9.984375C 51.195312 9.496094 51.371094 9.09375 51.371094 9.082031L51.371094 9.082031L51.371094 9.082031C 51.371094 9.0703125 51.44922 8.890625 51.546875 8.675781L51.546875 8.675781L51.546875 8.675781C 51.871094 7.9765625 51.86328 8.0390625 51.695312 7.7148438L51.695312 7.7148438L51.695312 7.7148438C 51.515625 7.3554688 51.210938 7.0195312 51.070312 7.0195312L51.070312 7.0195312L51.070312 7.0195312C 50.964844 7.0195312 50.816406 7.1484375 50.816406 7.2421875L50.816406 7.2421875L50.816406 7.2421875C 50.816406 7.3476562 50.523438 7.6210938 50.36328 7.6640625L50.36328 7.6640625L50.36328 7.6640625C 49.96875 7.7734375 49.554688 7.5039062 49.496094 7.09375L49.496094 7.09375L49.496094 7.09375C 49.44922 6.8046875 49.539062 6.5859375 49.765625 6.390625L49.765625 6.390625L49.765625 6.390625C 49.945312 6.234375 49.96875 6.2304688 50.316406 6.2304688L50.316406 6.2304688L50.316406 6.2304688C 50.742188 6.2304688 51.04297 6.3476562 51.378906 6.640625L51.378906 6.640625L51.378906 6.640625C 51.703125 6.9257812 51.902344 7.2617188 52.253906 8.128906L52.253906 8.128906L52.253906 8.128906C 52.632812 9.066406 52.63672 9.082031 52.714844 9.265625L52.714844 9.265625L52.714844 9.265625C 52.75 9.34375 52.964844 9.894531 53.20703 10.496094L53.20703 10.496094L53.20703 10.496094C 53.44922 11.09375 53.660156 11.625 53.683594 11.675781L53.683594 11.675781L53.683594 11.675781C 53.70703 11.7265625 53.765625 11.8671875 53.816406 11.980469L53.816406 11.980469L53.816406 11.980469C 53.94922 12.2734375 54.246094 12.535156 54.44922 12.535156L54.44922 12.535156L54.44922 12.535156C 54.628906 12.535156 54.722656 12.621094 54.69922 12.7734375L54.69922 12.7734375L54.683594 12.8828125L54.683594 12.8828125L52.64453 12.8828125L52.64453 12.8828125L52.632812 12.746094L52.632812 12.746094L52.632812 12.746094C 52.61328 12.574219 52.679688 12.535156 52.976562 12.535156L52.976562 12.535156L52.976562 12.535156C 53.164062 12.535156 53.23047 12.511719 53.316406 12.417969L53.316406 12.417969L53.316406 12.417969C 53.51172 12.2109375 53.4375 11.953125 52.63672 10.0234375L52.63672 10.0234375L52.63672 10.0234375C 52.51953 9.7421875 52.410156 9.519531 52.390625 9.519531L52.390625 9.519531L52.390625 9.519531C 52.367188 9.519531 52.335938 9.566406 52.316406 9.628906L52.316406 9.628906L52.316406 9.628906C 52.296875 9.683594 52.226562 9.859375 52.15625 10.015625L52.15625 10.015625L52.15625 10.015625C 52.08203 10.175781 51.96875 10.4375 51.902344 10.597656L51.902344 10.597656L51.902344 10.597656C 51.835938 10.7578125 51.73047 11.003906 51.664062 11.144531L51.664062 11.144531L51.664062 11.144531C 51.179688 12.2109375 51.164062 12.535156 51.609375 12.535156L51.609375 12.535156L51.609375 12.535156C 51.828125 12.535156 51.890625 12.589844 51.871094 12.746094L51.871094 12.746094L51.859375 12.8828125L51.859375 12.8828125L50.58203 12.894531L50.58203 12.894531L50.58203 12.894531C 49.878906 12.8984375 49.29297 12.890625 49.273438 12.871094z" stroke="none" fill="#000000" fill-rule="nonzero" />
	</g>
</g>
</svg>