<?xml version="1.0" encoding="UTF-8"?>
<svg xmlns="http://www.w3.org/2000/svg" xmlns:xlink="http://www.w3.org/1999/xlink" width="64pt" height="60pt" viewBox="0 0 64 60" version="1.1">
<g id="surface1">
<path style=" stroke:none;fill-rule:nonzero;fill:rgb(0%,0%,0%);fill-opacity:1;" d="M 8.074219 6.554688 C 7.921875 6.625 7.925781 6.875 8.078125 6.945312 C 8.140625 6.972656 8.492188 7.019531 8.851562 7.046875 C 10.5 7.175781 11.15625 7.574219 11.421875 8.601562 C 11.59375 9.261719 11.605469 10.003906 11.605469 21.300781 C 11.605469 29.707031 11.589844 32.535156 11.542969 33.351562 C 11.394531 35.988281 11.132812 36.925781 10.445312 37.226562 C 10.261719 37.308594 9.640625 37.421875 9.078125 37.480469 C 8.621094 37.527344 8.488281 37.707031 8.746094 37.949219 L 8.871094 38.070312 L 10.46875 38.027344 C 12.488281 37.980469 14.03125 37.980469 16.628906 38.03125 C 18.515625 38.066406 18.707031 38.066406 18.839844 37.992188 C 19.023438 37.898438 19.085938 37.71875 18.972656 37.597656 C 18.914062 37.53125 18.800781 37.5 18.515625 37.480469 C 17.21875 37.382812 16.570312 37.292969 16.257812 37.160156 C 15.851562 36.984375 15.472656 36.480469 15.335938 35.914062 C 15.097656 34.910156 15.046875 33.820312 15.023438 29.066406 C 15 24.953125 15.003906 24.730469 15.082031 24.675781 C 15.179688 24.601562 16.324219 24.59375 18.925781 24.65625 C 20.457031 24.691406 20.664062 24.707031 20.777344 24.78125 C 20.914062 24.867188 21.257812 25.316406 22.1875 26.605469 C 24.53125 29.855469 26.925781 33.03125 28.117188 34.453125 C 28.808594 35.285156 29.6875 36.1875 30.203125 36.605469 C 31.359375 37.535156 32.675781 38.09375 34.300781 38.335938 C 35.59375 38.527344 38.265625 38.414062 39.375 38.117188 C 40.480469 37.820312 41.699219 37.230469 42.519531 36.601562 C 42.871094 36.328125 43.386719 35.816406 43.703125 35.421875 C 44.585938 34.3125 45.167969 32.847656 45.285156 31.4375 C 45.324219 31.011719 45.253906 30.824219 45.019531 30.730469 C 44.890625 30.675781 44.855469 30.679688 44.707031 30.761719 C 44.507812 30.867188 44.445312 30.984375 44.171875 31.808594 C 43.820312 32.871094 43.621094 33.300781 43.167969 33.980469 C 42.226562 35.390625 40.695312 36.332031 39.203125 36.421875 C 37.648438 36.511719 36.234375 35.554688 34.847656 33.46875 C 34.667969 33.199219 34.433594 32.8125 34.320312 32.609375 C 34.125 32.253906 34.117188 32.226562 34.117188 31.84375 C 34.121094 31.484375 34.132812 31.433594 34.273438 31.207031 C 34.398438 31.011719 34.757812 30.6875 34.847656 30.6875 C 34.863281 30.6875 35.132812 30.566406 35.441406 30.414062 C 35.757812 30.265625 36.121094 30.097656 36.246094 30.035156 C 36.378906 29.980469 36.628906 29.867188 36.804688 29.78125 C 37.523438 29.4375 38.132812 29.15625 38.148438 29.15625 C 38.15625 29.15625 38.4375 29.027344 38.78125 28.863281 C 39.121094 28.703125 39.472656 28.535156 39.558594 28.5 C 39.894531 28.34375 40.339844 28.140625 40.8125 27.917969 C 41.078125 27.792969 41.453125 27.617188 41.644531 27.535156 C 42.121094 27.316406 42.445312 27.109375 42.582031 26.921875 C 42.84375 26.566406 42.917969 26.09375 42.769531 25.71875 C 42.726562 25.605469 42.582031 25.359375 42.441406 25.171875 C 41.128906 23.375 39.554688 22.199219 37.890625 21.769531 C 36.507812 21.410156 35.1875 21.550781 33.839844 22.203125 C 32.441406 22.878906 31.378906 23.933594 30.6875 25.332031 C 30.527344 25.660156 30.339844 26.09375 30.277344 26.28125 C 30.136719 26.71875 29.925781 27.582031 29.925781 27.730469 C 29.925781 28.097656 29.636719 28.617188 29.332031 28.800781 C 28.929688 29.039062 28.601562 29.074219 28.195312 28.925781 C 27.832031 28.785156 27.835938 28.792969 26.472656 27.046875 C 26.269531 26.78125 25.738281 26.101562 25.292969 25.53125 C 24.847656 24.964844 24.433594 24.40625 24.378906 24.292969 C 24.242188 24.023438 24.234375 23.523438 24.359375 23.238281 C 24.414062 23.136719 24.664062 22.820312 24.921875 22.542969 C 26.894531 20.441406 28.089844 18.4375 28.5625 16.457031 C 28.710938 15.828125 28.726562 15.738281 28.789062 15.214844 C 29.09375 12.757812 28.417969 10.699219 26.726562 8.933594 C 26.4375 8.621094 25.796875 8.121094 25.445312 7.921875 C 24.804688 7.558594 23.980469 7.183594 23.601562 7.085938 C 23.527344 7.070312 23.347656 7.019531 23.207031 6.976562 C 22.753906 6.839844 22.128906 6.710938 21.378906 6.597656 C 20.925781 6.527344 20.195312 6.515625 14.523438 6.511719 C 10.1875 6.507812 8.144531 6.523438 8.074219 6.554688 Z M 19.570312 7.894531 C 20.433594 8.074219 20.859375 8.210938 21.457031 8.507812 C 22.074219 8.8125 22.484375 9.109375 23.019531 9.617188 C 23.558594 10.148438 23.929688 10.628906 24.269531 11.265625 C 24.492188 11.691406 24.804688 12.4375 24.875 12.722656 C 24.894531 12.796875 24.945312 12.988281 24.988281 13.140625 C 25.378906 14.574219 25.449219 16.804688 25.152344 18.355469 C 24.722656 20.585938 23.679688 22.21875 22.273438 22.871094 C 21.5 23.226562 21.082031 23.316406 19.914062 23.347656 C 18.386719 23.394531 16.664062 23.203125 15.742188 22.894531 C 15.351562 22.765625 15.222656 22.691406 15.105469 22.546875 L 15.007812 22.421875 L 15.007812 15.367188 C 15.007812 8.351562 15.007812 8.3125 15.101562 8.191406 C 15.160156 8.117188 15.285156 8.046875 15.441406 8.003906 C 15.667969 7.941406 15.820312 7.917969 16.628906 7.832031 C 17.175781 7.773438 19.195312 7.820312 19.570312 7.894531 Z M 35.921875 22.875 C 36.351562 22.964844 36.539062 23.042969 36.917969 23.289062 C 37.640625 23.757812 38.453125 24.730469 38.976562 25.75 C 39.25 26.28125 39.144531 26.949219 38.730469 27.3125 C 38.574219 27.449219 38.089844 27.691406 36.804688 28.277344 C 36.679688 28.332031 36.3125 28.503906 35.996094 28.652344 C 35.6875 28.804688 35.421875 28.925781 35.414062 28.925781 C 35.410156 28.925781 35.183594 29.027344 34.917969 29.152344 C 34.417969 29.386719 34.148438 29.480469 33.964844 29.480469 C 33.703125 29.480469 33.351562 29.332031 33.121094 29.128906 C 32.863281 28.890625 32.789062 28.753906 32.691406 28.34375 C 32.527344 27.667969 32.496094 27.347656 32.496094 26.46875 C 32.496094 25.507812 32.550781 25.175781 32.804688 24.617188 C 33.195312 23.761719 34.042969 23.089844 34.996094 22.882812 C 35.417969 22.792969 35.511719 22.792969 35.921875 22.875 Z M 35.921875 22.875 "/>
<path style=" stroke:none;fill-rule:nonzero;fill:rgb(0%,0%,0%);fill-opacity:1;" d="M 48.480469 6.859375 C 48.222656 6.886719 48.066406 7.042969 48.109375 7.21875 C 48.148438 7.351562 48.308594 7.402344 48.777344 7.441406 C 49.6875 7.503906 50.203125 7.683594 50.542969 8.050781 C 50.824219 8.351562 50.96875 8.671875 51.070312 9.21875 C 51.207031 9.949219 51.234375 11.929688 51.234375 21.550781 C 51.234375 33.511719 51.195312 34.917969 50.859375 36.339844 C 50.699219 36.988281 50.421875 37.457031 50.097656 37.625 C 49.890625 37.738281 49.496094 37.816406 48.988281 37.847656 C 48.433594 37.882812 48.277344 37.9375 48.242188 38.089844 C 48.21875 38.175781 48.242188 38.238281 48.332031 38.324219 L 48.453125 38.449219 L 49.765625 38.4375 C 50.484375 38.433594 51.503906 38.402344 52.035156 38.375 C 52.683594 38.347656 53.335938 38.34375 54.050781 38.375 C 54.628906 38.402344 55.882812 38.433594 56.84375 38.4375 C 58.507812 38.449219 58.59375 38.445312 58.6875 38.363281 C 58.742188 38.3125 58.785156 38.21875 58.785156 38.144531 C 58.785156 37.949219 58.617188 37.890625 58.019531 37.851562 C 57.054688 37.796875 56.234375 37.667969 55.980469 37.527344 C 55.226562 37.117188 55.027344 36.511719 54.859375 34.070312 C 54.785156 33.050781 54.78125 31.808594 54.777344 21.695312 C 54.777344 11.429688 54.785156 10.390625 54.855469 9.734375 C 54.996094 8.492188 55.21875 8.039062 55.851562 7.71875 C 56.121094 7.582031 56.371094 7.53125 57.136719 7.445312 C 57.527344 7.398438 57.652344 7.367188 57.699219 7.300781 C 57.851562 7.09375 57.6875 6.863281 57.375 6.855469 C 56.851562 6.832031 54.808594 6.871094 54.011719 6.910156 C 53.378906 6.949219 52.734375 6.949219 51.859375 6.910156 C 50.339844 6.851562 48.789062 6.828125 48.480469 6.859375 Z M 48.480469 6.859375 "/>
<path style=" stroke:none;fill-rule:nonzero;fill:rgb(0%,0%,0%);fill-opacity:1;" d="M 14.863281 44.199219 C 14.851562 44.210938 14.734375 44.238281 14.609375 44.269531 C 13.691406 44.449219 13.277344 44.546875 13.238281 44.582031 C 13.210938 44.609375 13.207031 44.671875 13.226562 44.726562 C 13.25 44.804688 13.285156 44.820312 13.488281 44.808594 C 13.699219 44.800781 13.734375 44.816406 13.824219 44.929688 C 13.921875 45.058594 13.921875 45.074219 13.941406 48.660156 C 13.960938 51.8125 13.976562 52.261719 14.035156 52.277344 C 14.074219 52.28125 14.261719 52.175781 14.460938 52.03125 C 14.65625 51.894531 14.832031 51.777344 14.851562 51.777344 C 14.871094 51.777344 14.953125 51.832031 15.042969 51.898438 C 15.472656 52.226562 16.070312 52.351562 16.582031 52.222656 C 18.246094 51.796875 18.957031 49.304688 17.851562 47.761719 C 17.628906 47.449219 17.226562 47.136719 16.871094 46.996094 C 16.367188 46.808594 15.667969 46.890625 15.226562 47.203125 C 15.148438 47.257812 15.078125 47.277344 15.050781 47.25 C 15.027344 47.226562 15.003906 46.535156 15 45.703125 C 14.984375 44.304688 14.96875 44.089844 14.863281 44.199219 Z M 16.164062 47.449219 C 16.359375 47.488281 16.722656 47.824219 16.851562 48.082031 C 17.066406 48.507812 17.140625 48.898438 17.140625 49.585938 C 17.140625 50.492188 16.976562 51.058594 16.617188 51.449219 C 16.449219 51.621094 16.128906 51.777344 15.941406 51.777344 C 15.71875 51.777344 15.359375 51.648438 15.183594 51.5 L 15.007812 51.355469 L 15.007812 49.601562 C 15.007812 48.273438 15.023438 47.835938 15.070312 47.78125 C 15.136719 47.691406 15.46875 47.484375 15.59375 47.453125 C 15.726562 47.417969 16 47.414062 16.164062 47.449219 Z M 16.164062 47.449219 "/>
<path style=" stroke:none;fill-rule:nonzero;fill:rgb(0%,0%,0%);fill-opacity:1;" d="M 45.167969 45.398438 C 45.140625 45.429688 45.128906 45.496094 45.148438 45.539062 C 45.183594 45.628906 45.085938 46.046875 44.976562 46.261719 C 44.867188 46.480469 44.511719 46.804688 44.269531 46.910156 C 44.164062 46.957031 43.957031 47.019531 43.8125 47.054688 C 43.554688 47.109375 43.542969 47.113281 43.542969 47.261719 C 43.542969 47.441406 43.582031 47.457031 44.054688 47.476562 L 44.355469 47.488281 L 44.382812 49.4375 C 44.394531 50.507812 44.425781 51.433594 44.445312 51.5 C 44.601562 51.953125 44.941406 52.21875 45.433594 52.269531 C 45.902344 52.320312 46.324219 52.152344 46.800781 51.730469 C 47.042969 51.515625 47.058594 51.457031 46.925781 51.335938 C 46.84375 51.257812 46.828125 51.257812 46.730469 51.332031 C 46.375 51.589844 46.261719 51.648438 46.105469 51.664062 C 45.878906 51.695312 45.652344 51.558594 45.542969 51.324219 C 45.476562 51.167969 45.464844 50.9375 45.464844 49.320312 L 45.464844 47.488281 L 46.089844 47.480469 C 46.90625 47.460938 46.925781 47.457031 46.925781 47.257812 L 46.925781 47.09375 L 46.230469 47.09375 C 45.582031 47.09375 45.535156 47.089844 45.488281 47.003906 C 45.457031 46.941406 45.441406 46.632812 45.449219 46.171875 C 45.453125 45.769531 45.441406 45.414062 45.425781 45.382812 C 45.378906 45.316406 45.234375 45.320312 45.167969 45.398438 Z M 45.167969 45.398438 "/>
<path style=" stroke:none;fill-rule:nonzero;fill:rgb(0%,0%,0%);fill-opacity:1;" d="M 23.203125 46.945312 C 22.621094 47.101562 22.105469 47.511719 21.757812 48.105469 C 21.664062 48.269531 21.585938 48.425781 21.585938 48.457031 C 21.585938 48.484375 21.566406 48.53125 21.550781 48.554688 C 21.527344 48.582031 21.472656 48.742188 21.429688 48.914062 C 21.3125 49.355469 21.339844 50.242188 21.488281 50.660156 C 21.75 51.402344 22.308594 51.953125 23.03125 52.179688 C 23.394531 52.296875 24.125 52.28125 24.449219 52.15625 C 24.824219 52.007812 25.128906 51.796875 25.425781 51.464844 C 25.765625 51.085938 25.839844 50.964844 25.769531 50.859375 C 25.675781 50.707031 25.574219 50.746094 25.238281 51.089844 C 25.050781 51.277344 24.78125 51.488281 24.644531 51.566406 C 24.421875 51.6875 24.34375 51.707031 24.019531 51.703125 C 23.597656 51.703125 23.453125 51.648438 23.128906 51.347656 C 22.753906 51 22.511719 50.347656 22.511719 49.675781 L 22.511719 49.320312 L 25.664062 49.320312 L 25.664062 49.144531 C 25.660156 48.675781 25.355469 47.933594 25.003906 47.535156 C 24.742188 47.238281 24.390625 47.015625 24.03125 46.933594 C 23.667969 46.847656 23.582031 46.847656 23.203125 46.945312 Z M 23.945312 47.300781 C 24.121094 47.390625 24.355469 47.671875 24.394531 47.828125 C 24.40625 47.898438 24.441406 48.011719 24.457031 48.089844 C 24.527344 48.34375 24.558594 48.894531 24.503906 48.925781 C 24.441406 48.964844 22.621094 48.964844 22.554688 48.925781 C 22.410156 48.832031 22.761719 47.726562 23.007812 47.5 C 23.277344 47.257812 23.695312 47.167969 23.945312 47.300781 Z M 23.945312 47.300781 "/>
<path style=" stroke:none;fill-rule:nonzero;fill:rgb(0%,0%,0%);fill-opacity:1;" d="M 30.226562 46.9375 C 29.53125 47.0625 29.167969 47.277344 28.96875 47.675781 C 28.859375 47.90625 28.851562 47.953125 28.894531 48.105469 C 29.003906 48.460938 29.390625 48.675781 29.738281 48.574219 C 30.023438 48.492188 30.136719 48.320312 30.207031 47.902344 C 30.308594 47.3125 30.464844 47.160156 30.9375 47.203125 C 31.152344 47.214844 31.210938 47.242188 31.324219 47.367188 L 31.453125 47.515625 L 31.445312 48.335938 L 31.429688 49.152344 L 31.03125 49.261719 C 30.195312 49.476562 29.554688 49.820312 29.140625 50.273438 C 28.859375 50.585938 28.765625 50.761719 28.734375 51.058594 C 28.683594 51.53125 28.914062 51.933594 29.359375 52.152344 C 29.535156 52.242188 29.65625 52.257812 29.996094 52.257812 C 30.476562 52.261719 30.800781 52.175781 31.199219 51.933594 C 31.347656 51.847656 31.480469 51.777344 31.503906 51.777344 C 31.527344 51.777344 31.585938 51.835938 31.644531 51.910156 C 31.96875 52.351562 32.742188 52.382812 33.191406 51.972656 C 33.445312 51.738281 33.503906 51.640625 33.445312 51.566406 C 33.394531 51.507812 33.371094 51.507812 33.238281 51.589844 C 33.03125 51.714844 32.917969 51.707031 32.742188 51.550781 L 32.589844 51.414062 L 32.566406 49.496094 C 32.542969 47.804688 32.53125 47.5625 32.457031 47.433594 C 32.316406 47.164062 32.066406 47.039062 31.433594 46.933594 C 30.945312 46.847656 30.71875 46.847656 30.226562 46.9375 Z M 31.453125 50.503906 L 31.453125 51.5 L 31.269531 51.589844 C 31.132812 51.660156 30.996094 51.683594 30.746094 51.683594 C 30.335938 51.683594 30.136719 51.582031 30 51.292969 C 29.921875 51.132812 29.914062 51.082031 29.960938 50.859375 C 30.027344 50.546875 30.234375 50.214844 30.5 49.996094 C 30.738281 49.800781 31.359375 49.453125 31.417969 49.488281 C 31.433594 49.5 31.453125 49.960938 31.453125 50.503906 Z M 31.453125 50.503906 "/>
<path style=" stroke:none;fill-rule:nonzero;fill:rgb(0%,0%,0%);fill-opacity:1;" d="M 37.175781 46.953125 C 37.027344 46.992188 36.816406 47.035156 36.167969 47.167969 C 35.796875 47.25 35.761719 47.265625 35.761719 47.359375 C 35.761719 47.46875 35.785156 47.480469 36.027344 47.464844 C 36.21875 47.457031 36.339844 47.527344 36.402344 47.683594 C 36.433594 47.765625 36.457031 48.40625 36.464844 49.480469 L 36.480469 51.152344 L 36.605469 51.414062 C 36.753906 51.734375 37.011719 52 37.3125 52.148438 C 37.664062 52.316406 38.195312 52.308594 38.558594 52.128906 C 38.710938 52.054688 38.925781 51.902344 39.035156 51.789062 C 39.148438 51.679688 39.257812 51.601562 39.285156 51.613281 C 39.308594 51.632812 39.328125 51.734375 39.328125 51.851562 C 39.328125 51.960938 39.34375 52.054688 39.367188 52.054688 C 39.449219 52.058594 41.070312 52.058594 41.117188 52.054688 C 41.195312 52.054688 41.226562 51.882812 41.164062 51.808594 C 41.136719 51.773438 41.011719 51.730469 40.886719 51.714844 C 40.742188 51.703125 40.625 51.660156 40.558594 51.597656 C 40.464844 51.5 40.464844 51.476562 40.449219 49.238281 C 40.445312 47.996094 40.417969 46.960938 40.398438 46.941406 C 40.351562 46.894531 38.597656 47.21875 38.519531 47.289062 C 38.488281 47.316406 38.488281 47.359375 38.523438 47.410156 C 38.5625 47.476562 38.628906 47.484375 38.878906 47.476562 C 39.34375 47.449219 39.328125 47.390625 39.328125 49.351562 L 39.328125 50.964844 L 39.1875 51.136719 C 39.023438 51.335938 38.613281 51.546875 38.386719 51.546875 C 38.085938 51.546875 37.753906 51.332031 37.632812 51.058594 C 37.609375 51.007812 37.582031 50.058594 37.566406 48.949219 L 37.542969 46.933594 L 37.429688 46.921875 C 37.363281 46.917969 37.253906 46.933594 37.175781 46.953125 Z M 37.175781 46.953125 "/>
<path style=" stroke:none;fill-rule:nonzero;fill:rgb(0%,0%,0%);fill-opacity:1;" d="M 49.273438 47.128906 C 49.253906 47.140625 49.242188 47.214844 49.242188 47.285156 C 49.242188 47.417969 49.3125 47.464844 49.519531 47.464844 C 49.726562 47.464844 49.933594 47.679688 50.125 48.089844 C 50.4375 48.765625 50.585938 49.09375 50.585938 49.113281 C 50.585938 49.125 50.761719 49.527344 50.980469 50.015625 C 51.195312 50.503906 51.371094 50.90625 51.371094 50.917969 C 51.371094 50.929688 51.449219 51.109375 51.546875 51.324219 C 51.871094 52.023438 51.863281 51.960938 51.695312 52.285156 C 51.515625 52.644531 51.210938 52.980469 51.070312 52.980469 C 50.964844 52.980469 50.816406 52.851562 50.816406 52.757812 C 50.816406 52.652344 50.523438 52.378906 50.363281 52.335938 C 49.96875 52.226562 49.554688 52.496094 49.496094 52.90625 C 49.449219 53.195312 49.539062 53.414062 49.765625 53.609375 C 49.945312 53.765625 49.96875 53.769531 50.316406 53.769531 C 50.742188 53.769531 51.042969 53.652344 51.378906 53.359375 C 51.703125 53.074219 51.902344 52.738281 52.253906 51.871094 C 52.632812 50.933594 52.636719 50.917969 52.714844 50.734375 C 52.75 50.65625 52.964844 50.105469 53.207031 49.503906 C 53.449219 48.90625 53.660156 48.375 53.683594 48.324219 C 53.707031 48.273438 53.765625 48.132812 53.816406 48.019531 C 53.949219 47.726562 54.246094 47.464844 54.449219 47.464844 C 54.628906 47.464844 54.722656 47.378906 54.699219 47.226562 L 54.683594 47.117188 L 52.644531 47.117188 L 52.632812 47.253906 C 52.613281 47.425781 52.679688 47.464844 52.976562 47.464844 C 53.164062 47.464844 53.230469 47.488281 53.316406 47.582031 C 53.511719 47.789062 53.4375 48.046875 52.636719 49.976562 C 52.519531 50.257812 52.410156 50.480469 52.390625 50.480469 C 52.367188 50.480469 52.335938 50.433594 52.316406 50.371094 C 52.296875 50.316406 52.226562 50.140625 52.15625 49.984375 C 52.082031 49.824219 51.96875 49.5625 51.902344 49.402344 C 51.835938 49.242188 51.730469 48.996094 51.664062 48.855469 C 51.179688 47.789062 51.164062 47.464844 51.609375 47.464844 C 51.828125 47.464844 51.890625 47.410156 51.871094 47.253906 L 51.859375 47.117188 L 50.582031 47.105469 C 49.878906 47.101562 49.292969 47.109375 49.273438 47.128906 Z M 49.273438 47.128906 "/>
</g>
</svg>
